<?xml version="1.0" encoding="utf-8"?>
<!-- Generator: Adobe Illustrator 19.1.0, SVG Export Plug-In . SVG Version: 6.00 Build 0)  -->
<svg version="1.1" id="Capa_1" xmlns="http://www.w3.org/2000/svg" xmlns:xlink="http://www.w3.org/1999/xlink" x="0px" y="0px"
	 viewBox="-95 216.9 767.5 128.1" style="enable-background:new -95 216.9 767.5 128.1;" xml:space="preserve">
<style type="text/css">
	.st0{fill:#009D72;}
	.st1{fill:#FFFFFF;}
	.st2{fill:#1C1C1C;}
</style>
<g>
	<g>
		<rect x="361.6" y="226.2" class="st0" width="256.6" height="109.5"/>
		<path class="st1" d="M34.8,219.5h41.1v122.9H34.8V219.5z"/>
		<path class="st1" d="M90.2,219.5h38.4l43.7,54.2v-54.2h40.7v122.9h-36.5l-45.6-56.7v56.7H90.2V219.5z"/>
		<path class="st1" d="M299.4,308.7h-31.6v-13.3H295c-1-4.6-1.5-9.5-1.5-14.4c0-5.3,0.6-10.4,1.7-15.3h-27.5v-12.5h31.6
			c6.5-14.7,18.1-26.7,32.5-33.7H227.4v122.9h104.5C317.5,335.3,305.9,323.4,299.4,308.7z"/>
		<circle id="XMLID_200_" class="st0" cx="361.6" cy="280.9" r="54.8"/>
		<circle id="XMLID_191_" class="st0" cx="618.2" cy="280.9" r="54.8"/>
		<circle id="XMLID_190_" class="st2" cx="361.6" cy="280.9" r="44.7"/>
		<path class="st1" d="M-5.6,293.8c-4.7,9-14.1,15.2-24.9,15.2c-15.5,0-28-12.5-28-28c0-15.5,12.5-28,28-28
			c10.5,0,19.7,5.8,24.5,14.4L25,249.1C14,229.8-6.7,216.9-30.5,216.9c-35.4,0-64.1,28.7-64.1,64.1c0,35.4,28.7,64.1,64.1,64.1
			c24.3,0,45.5-13.5,56.3-33.5L-5.6,293.8z"/>
		<g>
			<g>
				<path class="st2" d="M424.8,267.4h20.6v5.3h-14.6v5.5h12.9v5.3h-12.9v5.7h14.8v5.3h-20.8V267.4z"/>
				<path class="st2" d="M461,295.1c-2.1,0-4.1-0.4-6.1-1.1c-2-0.7-3.8-1.8-5.5-3.3l3.6-4.3c1.2,1,2.5,1.8,3.8,2.4
					c1.3,0.6,2.8,0.9,4.3,0.9c1.2,0,2.2-0.2,2.9-0.7c0.7-0.5,1-1.1,1-1.9v-0.1c0-0.4-0.1-0.7-0.2-1c-0.1-0.3-0.4-0.6-0.8-0.8
					c-0.4-0.3-1-0.5-1.7-0.8c-0.7-0.3-1.6-0.5-2.8-0.8c-1.4-0.3-2.6-0.7-3.7-1.1c-1.1-0.4-2.1-0.9-2.8-1.5c-0.8-0.6-1.4-1.4-1.8-2.3
					c-0.4-0.9-0.6-2-0.6-3.4v-0.1c0-1.2,0.2-2.4,0.7-3.4s1.1-1.9,2-2.6c0.8-0.7,1.8-1.3,3-1.7c1.2-0.4,2.5-0.6,3.9-0.6
					c2,0,3.8,0.3,5.5,0.9c1.7,0.6,3.2,1.5,4.6,2.6l-3.1,4.5c-1.2-0.8-2.4-1.5-3.6-2c-1.2-0.5-2.3-0.7-3.5-0.7c-1.2,0-2,0.2-2.6,0.7
					c-0.6,0.5-0.9,1-0.9,1.7v0.1c0,0.4,0.1,0.8,0.3,1.2c0.2,0.3,0.5,0.6,0.9,0.9c0.4,0.3,1,0.5,1.8,0.7c0.8,0.2,1.7,0.5,2.9,0.8
					c1.4,0.4,2.6,0.8,3.7,1.2c1.1,0.5,2,1,2.7,1.6c0.7,0.6,1.3,1.4,1.7,2.2c0.4,0.9,0.6,1.9,0.6,3.1v0.1c0,1.4-0.2,2.6-0.7,3.6
					c-0.5,1.1-1.2,1.9-2.1,2.7c-0.9,0.7-1.9,1.3-3.1,1.6C463.9,294.9,462.5,295.1,461,295.1z"/>
				<path class="st2" d="M482.4,272.9h-8.3v-5.5h22.6v5.5h-8.3v21.8h-6V272.9z"/>
				<path class="st2" d="M501.8,267.4h12.5c3.5,0,6.1,0.9,8,2.8c1.6,1.6,2.3,3.6,2.3,6.2v0.1c0,2.2-0.5,4-1.6,5.4s-2.5,2.4-4.2,3.1
					l6.7,9.8h-7l-5.9-8.7h-4.7v8.7h-6V267.4z M513.9,280.7c1.5,0,2.6-0.4,3.4-1c0.8-0.7,1.2-1.6,1.2-2.8v-0.1c0-1.3-0.4-2.3-1.2-2.9
					c-0.8-0.6-2-1-3.5-1h-6v7.8H513.9z"/>
				<path class="st2" d="M530.4,267.4h20.6v5.3h-14.6v5.5h12.9v5.3h-12.9v5.7h14.8v5.3h-20.8V267.4z"/>
				<path class="st2" d="M556.9,267.4h5.5l12.8,16.8v-16.8h5.9v27.3H576l-13.2-17.4v17.4h-5.9V267.4z"/>
				<path class="st2" d="M601.4,295.2c-2.1,0-4-0.4-5.8-1.1c-1.8-0.7-3.3-1.7-4.6-3c-1.3-1.3-2.3-2.7-3-4.4
					c-0.7-1.7-1.1-3.5-1.1-5.5V281c0-2,0.4-3.8,1.1-5.5c0.7-1.7,1.7-3.2,3-4.5c1.3-1.3,2.8-2.3,4.6-3c1.8-0.7,3.7-1.1,5.8-1.1
					c2.1,0,4,0.4,5.8,1.1c1.8,0.7,3.3,1.7,4.6,3c1.3,1.3,2.3,2.7,3,4.4c0.7,1.7,1.1,3.5,1.1,5.5v0.1c0,2-0.4,3.8-1.1,5.5
					c-0.7,1.7-1.7,3.2-3,4.5c-1.3,1.3-2.8,2.3-4.6,3C605.4,294.8,603.5,295.2,601.4,295.2z M601.4,289.6c1.2,0,2.3-0.2,3.3-0.7
					c1-0.4,1.9-1.1,2.6-1.8c0.7-0.8,1.3-1.7,1.7-2.7c0.4-1,0.6-2.1,0.6-3.3V281c0-1.2-0.2-2.3-0.6-3.3c-0.4-1-1-2-1.7-2.7
					c-0.7-0.8-1.6-1.4-2.6-1.9c-1-0.5-2.1-0.7-3.3-0.7c-1.2,0-2.3,0.2-3.3,0.7c-1,0.4-1.9,1.1-2.6,1.8c-0.7,0.8-1.3,1.7-1.7,2.7
					c-0.4,1-0.6,2.1-0.6,3.3v0.1c0,1.2,0.2,2.3,0.6,3.3c0.4,1,1,2,1.7,2.7c0.7,0.8,1.6,1.4,2.6,1.9
					C599.1,289.4,600.2,289.6,601.4,289.6z"/>
				<path class="st2" d="M631.2,295.1c-2.1,0-4.1-0.4-6.1-1.1c-2-0.7-3.8-1.8-5.5-3.3l3.6-4.3c1.2,1,2.5,1.8,3.8,2.4
					c1.3,0.6,2.8,0.9,4.3,0.9c1.2,0,2.2-0.2,2.9-0.7c0.7-0.5,1-1.1,1-1.9v-0.1c0-0.4-0.1-0.7-0.2-1c-0.1-0.3-0.4-0.6-0.8-0.8
					c-0.4-0.3-1-0.5-1.7-0.8c-0.7-0.3-1.6-0.5-2.8-0.8c-1.4-0.3-2.6-0.7-3.7-1.1c-1.1-0.4-2.1-0.9-2.8-1.5c-0.8-0.6-1.4-1.4-1.8-2.3
					c-0.4-0.9-0.6-2-0.6-3.4v-0.1c0-1.2,0.2-2.4,0.7-3.4s1.1-1.9,2-2.6c0.8-0.7,1.8-1.3,3-1.7c1.2-0.4,2.5-0.6,3.9-0.6
					c2,0,3.8,0.3,5.5,0.9c1.7,0.6,3.2,1.5,4.6,2.6l-3.1,4.5c-1.2-0.8-2.4-1.5-3.6-2c-1.2-0.5-2.3-0.7-3.5-0.7c-1.2,0-2,0.2-2.6,0.7
					c-0.6,0.5-0.9,1-0.9,1.7v0.1c0,0.4,0.1,0.8,0.3,1.2c0.2,0.3,0.5,0.6,0.9,0.9c0.4,0.3,1,0.5,1.8,0.7c0.8,0.2,1.7,0.5,2.9,0.8
					c1.4,0.4,2.6,0.8,3.7,1.2c1.1,0.5,2,1,2.7,1.6c0.7,0.6,1.3,1.4,1.7,2.2c0.4,0.9,0.6,1.9,0.6,3.1v0.1c0,1.4-0.2,2.6-0.7,3.6
					c-0.5,1.1-1.2,1.9-2.1,2.7c-0.9,0.7-1.9,1.3-3.1,1.6C634,294.9,632.7,295.1,631.2,295.1z"/>
			</g>
		</g>
		<g>
			<path class="st1" d="M343.9,290.3h8.8l1.3,4.9h8.9l-9.6-28.5h-9.5l-9.5,28.5h8.4L343.9,290.3z M347.5,276l0.7-3h0.1l0.7,3l2,7.9
				h-5.6L347.5,276z"/>
			<path class="st1" d="M373.2,285.3h2.9l4.2,9.9h9.3l-6.2-11.5c2.7-1.1,4.3-4,4.3-7.8c0-6.4-3.9-9.2-11.5-9.2h-10.9v28.5h7.9V285.3
				z M373.2,273h3c2.4,0,3.2,0.7,3.2,3.2c0,2.8-0.9,3.3-3.2,3.3h-2.9V273z"/>
		</g>
	</g>
</g>
</svg>
