<?xml version="1.0" encoding="utf-8"?>
<!-- Generator: Adobe Illustrator 16.0.3, SVG Export Plug-In . SVG Version: 6.00 Build 0)  -->
<!DOCTYPE svg PUBLIC "-//W3C//DTD SVG 1.1//EN" "http://www.w3.org/Graphics/SVG/1.1/DTD/svg11.dtd">
<svg version="1.1" id="Layer_1" xmlns="http://www.w3.org/2000/svg" xmlns:xlink="http://www.w3.org/1999/xlink" x="0px" y="0px"
	 width="126.3px" height="39.7px" viewBox="0 0 126.3 39.7" enable-background="new 0 0 126.3 39.7" xml:space="preserve">
<g>
	<g>
		<path fill="#FFFFFF" d="M32.9,6.2h9.5v28.4h-9.5V6.2z"/>
		<path fill="#FFFFFF" d="M45.8,6.2h8.9l10.1,12.5V6.2h9.4v28.4h-8.4L55.1,21.5v13.1h-9.4V6.2H45.8z"/>
		<path fill="#FFFFFF" d="M94,26.799h-7.299v-3.1H93C92.8,22.6,92.6,21.5,92.6,20.4c0-1.2,0.101-2.4,0.399-3.5h-6.299V14H94
			c1.5-3.4,4.201-6.2,7.5-7.8H77.4v28.4h24.1C98.201,32.9,95.5,30.2,94,26.799z"/>
		<circle id="XMLID_6_" fill="#00DDE5" cx="108.4" cy="20.4" r="12.6"/>
		<circle id="XMLID_5_" fill="#1C1C1C" cx="108.4" cy="20.4" r="10.3"/>
		<g>
			<g>
				<path fill="#FFFFFF" d="M106.4,22.4h-2l-0.3,1.101h-1.899l2.1-6.399h2.101l2.2,6.399h-2L106.4,22.4z M105.201,19.2l-0.5,1.8
					h1.199l-0.5-1.8l-0.199-0.7l0,0V19.2z"/>
				<path fill="#FFFFFF" d="M113.201,21l1.399,2.6H112.5l-0.898-2.2H111v2.2h-1.799v-6.4h2.399c1.7,0,2.601,0.6,2.601,2.1
					C114.201,20.1,113.8,20.7,113.201,21z M111.6,18.6h-0.7V20h0.7c0.5,0,0.7-0.1,0.7-0.7C112.3,18.7,112.1,18.6,111.6,18.6z"/>
			</g>
		</g>
		<path fill="#FFFFFF" d="M23.6,23.299c-1.1,2.101-3.2,3.5-5.7,3.5c-3.6,0-6.5-2.899-6.5-6.5c0-3.6,2.9-6.5,6.5-6.5
			c2.4,0,4.5,1.3,5.6,3.3l7.2-4.2c-2.6-4.4-7.3-7.4-12.8-7.4c-8.2,0-14.8,6.6-14.8,14.8c0,8.202,6.6,14.8,14.8,14.8
			c5.6,0,10.5-3.101,13-7.7L23.6,23.299z"/>
	</g>
</g>
</svg>
