<?xml version="1.0" encoding="utf-8"?>
<!-- Generator: Adobe Illustrator 16.0.3, SVG Export Plug-In . SVG Version: 6.00 Build 0)  -->
<!DOCTYPE svg PUBLIC "-//W3C//DTD SVG 1.1//EN" "http://www.w3.org/Graphics/SVG/1.1/DTD/svg11.dtd">
<svg version="1.1" id="Layer_1" xmlns="http://www.w3.org/2000/svg" xmlns:xlink="http://www.w3.org/1999/xlink" x="0px" y="0px"
	 width="126.3px" height="39.7px" viewBox="0 0 126.3 39.7" enable-background="new 0 0 126.3 39.7" xml:space="preserve">
<g>
	<g>
		<polygon fill="#FFFFFF" points="104.9,10.4 104.9,14.6 110.701,14.6 110.701,30.299 116.201,30.299 116.201,14.6 122,14.6 
			122,10.4 		"/>
		<polygon fill="#FFFFFF" points="20.9,10.4 14.9,10.4 5.7,30.299 11.6,30.299 17.9,16.8 24.2,30.299 30.1,30.299 		"/>
		<polygon fill="#FFFFFF" points="97.1,10.4 91.1,10.4 81.9,30.299 87.8,30.299 94.1,16.8 100.4,30.299 106.4,30.299 		"/>
		<path fill="#FFFFFF" d="M74.5,18.3H64.6c-1,0-1.8-0.8-1.8-1.8s0.8-1.8,1.8-1.8h14.7v-4.2H63.6c-3.3,0-6,2.7-6,6s2.7,6,6,6H73.5
			c1,0,1.801,0.799,1.801,1.799S74.5,26.1,73.5,26.1H58.8v4.199h15.7c3.301,0,6-2.699,6-6C80.5,21,77.9,18.3,74.5,18.3"/>
		<path fill="#FFFFFF" d="M45.5,22.5h2.7c3.3,0,6-2.701,6-6s-2.7-6-6-6H32.4v4.2h14.8c1,0,1.8,0.8,1.8,1.8s-0.8,1.8-1.8,1.8H32.4v12
			H38V22.5h0.9l9,7.799h0.2h6.5L45.5,22.5z"/>
	</g>
</g>
</svg>
