<?xml version="1.0" encoding="utf-8"?>
<!-- Generator: Adobe Illustrator 19.1.0, SVG Export Plug-In . SVG Version: 6.00 Build 0)  -->
<svg version="1.1" id="Capa_1" xmlns="http://www.w3.org/2000/svg" xmlns:xlink="http://www.w3.org/1999/xlink" x="0px" y="0px"
	 viewBox="0 0 510.9 128.1" style="enable-background:new 0 0 510.9 128.1;" xml:space="preserve">
<style type="text/css">
	.st0{fill:#FFFFFF;}
	.st1{fill:#00DDE5;}
	.st2{fill:#1C1C1C;}
</style>
<g>
	<path class="st0" d="M129.3,2.6h41.1v122.9h-41.1V2.6z"/>
	<path class="st0" d="M184.8,2.6h38.4l43.7,54.2V2.6h40.7v122.9h-36.5l-45.6-56.7v56.7h-40.7V2.6z"/>
	<path class="st0" d="M394,91.8h-31.6V78.5h27.3c-1-4.6-1.5-9.5-1.5-14.4c0-5.3,0.6-10.4,1.7-15.3h-27.5V36.3H394
		c6.5-14.7,18.1-26.7,32.5-33.7H322v122.9h104.5C412.1,118.4,400.5,106.5,394,91.8z"/>
	<circle id="XMLID_332_" class="st1" cx="456.2" cy="64.1" r="54.8"/>
	<circle id="XMLID_325_" class="st2" cx="456.2" cy="64.1" r="44.7"/>
	<g>
		<g>
			<path class="st0" d="M447.3,73.1h-8.5l-1.2,4.8h-8.1l9.2-27.6h9.2l9.3,27.6h-8.6L447.3,73.1z M442.4,59.2l-2,7.7h5.4l-2-7.7
				l-0.7-2.9h-0.1L442.4,59.2z"/>
			<path class="st0" d="M477,66.7l6,11.1h-9l-4.1-9.6h-2.8v9.6h-7.7V50.2H470c7.4,0,11.2,2.8,11.2,9C481.2,62.8,479.7,65.6,477,66.7
				z M470.1,56.3h-2.9v6.3h2.8c2.3,0,3.1-0.6,3.1-3.2C473.2,57,472.4,56.3,470.1,56.3z"/>
		</g>
	</g>
	<path class="st0" d="M89,76.9c-4.7,9-14.1,15.2-24.9,15.2c-15.5,0-28-12.5-28-28c0-15.5,12.5-28,28-28c10.5,0,19.7,5.8,24.5,14.4
		l31.1-18.2C108.6,13,87.8,0,64.1,0C28.7,0,0,28.7,0,64.1c0,35.4,28.7,64.1,64.1,64.1c24.3,0,45.5-13.5,56.3-33.5L89,76.9z"/>
</g>
</svg>
