<?xml version="1.0" encoding="utf-8"?>
<!-- Generator: Adobe Illustrator 16.0.3, SVG Export Plug-In . SVG Version: 6.00 Build 0)  -->
<!DOCTYPE svg PUBLIC "-//W3C//DTD SVG 1.1//EN" "http://www.w3.org/Graphics/SVG/1.1/DTD/svg11.dtd">
<svg version="1.1" id="Layer_1" xmlns="http://www.w3.org/2000/svg" xmlns:xlink="http://www.w3.org/1999/xlink" x="0px" y="0px"
	 width="180px" height="47px" viewBox="0 0 180 47" enable-background="new 0 0 180 47" xml:space="preserve">
<g>
	<g>
		<rect x="65.6" y="22.9" fill="#FFFFFF" width="0.8" height="5.2"/>
		<polygon fill="#FFFFFF" points="69.3,23.9 69.3,23.9 69.3,28.1 68.5,28.1 68.5,22.9 69.4,22.9 72.8,27 72.8,27 72.8,22.9 
			73.6,22.9 73.6,28.1 72.7,28.1 		"/>
		<path fill="#FFFFFF" d="M75.9,26.4c0,0.899,0.9,1.199,1.7,1.199c0.8,0,1.4-0.3,1.4-0.899c0-0.5-0.4-0.7-1-0.8l-1.2-0.2
			c-0.6-0.101-1.6-0.4-1.6-1.4s0.8-1.6,2.1-1.6c1.1,0,2.1,0.4,2.2,1.6h-0.8c-0.1-0.4-0.3-1-1.6-1c-0.6,0-1.2,0.2-1.2,0.9
			c0,0.3,0.2,0.6,0.9,0.7l1.3,0.199c0.4,0.101,1.6,0.301,1.6,1.301c0,1.3-1.2,1.699-2.3,1.699C76.2,28.1,75,27.7,75,26.2h0.9V26.4z"
			/>
		<polygon fill="#FFFFFF" points="82.8,23.5 80.8,23.5 80.8,22.9 85.6,22.9 85.6,23.5 83.6,23.5 83.6,28.1 82.8,28.1 		"/>
		<rect x="87.1" y="22.9" fill="#FFFFFF" width="0.8" height="5.2"/>
		<polygon fill="#FFFFFF" points="91.4,23.5 89.4,23.5 89.4,22.9 94.1,22.9 94.1,23.5 92.1,23.5 92.1,28.1 91.4,28.1 		"/>
		<path fill="#FFFFFF" d="M95.6,22.9H96.4v3.4c0,0.9,0.6,1.3,1.6,1.3s1.6-0.399,1.6-1.3v-3.4h0.801v3.3c0,1.399-0.801,2.1-2.4,2.1
			s-2.4-0.7-2.4-2.1V22.9z"/>
		<polygon fill="#FFFFFF" points="103.7,23.5 101.7,23.5 101.7,22.9 106.5,22.9 106.5,23.5 104.5,23.5 104.5,28.1 103.7,28.1 		"/>
		<path fill="#FFFFFF" d="M110.5,22.7c2.1,0,2.9,1.399,2.9,2.8c0,1.3-0.801,2.8-2.9,2.8s-2.9-1.399-2.9-2.8S108.4,22.7,110.5,22.7
			 M110.5,23.4c-1.2,0-2.1,0.7-2.1,2.1s0.899,2.1,2.1,2.1s2.1-0.699,2.1-2.1C112.7,24.1,111.7,23.4,110.5,23.4"/>
		<polygon fill="#FFFFFF" points="118.7,23.9 118.7,23.9 118.7,28.1 117.9,28.1 117.9,22.9 118.8,22.9 122.1,27 122.2,27 
			122.2,22.9 122.9,22.9 122.9,28.1 122,28.1 		"/>
		<path fill="#FFFFFF" d="M128.5,26.6h-2.6l-0.7,1.5h-0.8l2.399-5.2h0.9l2.399,5.2H129.2L128.5,26.6z M127.2,23.6l-1,2.3h2
			L127.2,23.6z"/>
		<path fill="#FFFFFF" d="M135.7,24.7c-0.101-0.7-0.7-1.3-1.8-1.3c-1.2,0-2,0.7-2,2.1c0,1,0.5,2,2,2c0.899,0,1.6-0.4,1.8-1.5h0.8
			c-0.1,1.2-1.1,2.1-2.6,2.1c-1.301,0-2.801-0.699-2.801-2.8c0-1.5,1-2.7,2.7-2.7c1.101,0,2.5,0.5,2.601,2h-0.7V24.7z"/>
		<rect x="138.4" y="22.9" fill="#FFFFFF" width="0.8" height="5.2"/>
		<path fill="#FFFFFF" d="M143.8,22.7c2.101,0,2.9,1.399,2.9,2.8c0,1.3-0.8,2.8-2.9,2.8c-2.1,0-2.899-1.399-2.899-2.8
			S141.7,22.7,143.8,22.7 M143.8,23.4c-1.2,0-2.1,0.7-2.1,2.1s0.899,2.1,2.1,2.1s2.101-0.699,2.101-2.1
			C146,24.1,145,23.4,143.8,23.4"/>
		<polygon fill="#FFFFFF" points="149.3,23.9 149.3,23.9 149.3,28.1 148.5,28.1 148.5,22.9 149.4,22.9 152.8,27 152.8,27 
			152.8,22.9 153.6,22.9 153.6,28.1 152.7,28.1 		"/>
		<path fill="#FFFFFF" d="M159.1,26.6h-2.6l-0.7,1.5H155l2.4-5.2h0.899l2.4,5.2h-0.9L159.1,26.6z M157.8,23.6l-1,2.3h2L157.8,23.6z"
			/>
		<polygon fill="#FFFFFF" points="162.1,22.9 162.9,22.9 162.9,27.4 166,27.4 166,28.1 162.1,28.1 		"/>
		<path fill="#FFFFFF" d="M65.6,31.6h2.7c1.6,0,2.3,1,2.3,2.5s-0.6,2.7-2.2,2.7h-2.7v-5.2H65.6z M68.2,36.2c1.3,0,1.5-1.101,1.5-2
			c0-0.9-0.3-1.9-1.6-1.9h-1.7v3.9H68.2z"/>
		<polygon fill="#FFFFFF" points="72.3,31.6 76.5,31.6 76.5,32.3 73.1,32.3 73.1,33.8 76.4,33.8 76.4,34.5 73.1,34.5 73.1,36.2 
			76.6,36.2 76.6,36.8 72.3,36.8 		"/>
		<path fill="#FFFFFF" d="M85.3,33.5c-0.1-0.7-0.7-1.3-1.8-1.3c-1.2,0-2,0.7-2,2.1c0,1,0.5,2,2,2c0.9,0,1.6-0.399,1.8-1.5h0.8
			C86,36,84.9,37,83.5,37c-1.3,0-2.8-0.7-2.8-2.8c0-1.5,1-2.7,2.7-2.7c1.1,0,2.5,0.5,2.6,2H85.3z"/>
		<rect x="87.9" y="31.6" fill="#FFFFFF" width="0.8" height="5.2"/>
		<polygon fill="#FFFFFF" points="91.6,32.7 91.6,32.7 91.6,36.8 90.8,36.8 90.8,31.6 91.7,31.6 95.1,35.8 95.1,35.8 95.1,31.6 
			95.9,31.6 95.9,36.8 95,36.8 		"/>
		<polygon fill="#FFFFFF" points="97.9,31.6 102.1,31.6 102.1,32.3 98.7,32.3 98.7,33.8 102,33.8 102,34.5 98.7,34.5 98.7,36.2 
			102.2,36.2 102.2,36.8 97.9,36.8 		"/>
		<polygon fill="#FFFFFF" points="110,31.6 110.9,31.6 108.6,34.6 108.6,36.8 107.8,36.8 107.8,34.7 105.6,31.6 106.5,31.6 
			108.3,34 		"/>
		<path fill="#FFFFFF" d="M117.5,35.3h-2.6l-0.7,1.5h-0.8l2.399-5.2h0.9l2.399,5.2H118.2L117.5,35.3z M116.2,32.3l-1,2.3h2
			L116.2,32.3z"/>
		<path fill="#FFFFFF" d="M120.5,31.6h3.2c1,0,1.399,0.7,1.399,1.4c0,0.6-0.3,1.1-0.899,1.3l0,0c0.5,0.101,0.7,0.5,0.8,1.101
			c0,1,0.1,1.199,0.2,1.399h-0.8c-0.101-0.1-0.101-0.399-0.2-1c-0.101-0.899-0.4-1.2-1-1.2h-2v2.2h-0.8v-5.2H120.5z M123.4,33.9
			c0.8,0,0.899-0.5,0.899-0.801c0-0.5-0.3-0.8-0.899-0.8h-2.2V34h2.2V33.9z"/>
		<polygon fill="#FFFFFF" points="128.3,32.3 126.4,32.3 126.4,31.6 131.1,31.6 131.1,32.3 129.1,32.3 129.1,36.8 128.3,36.8 		"/>
		<polygon fill="#FFFFFF" points="132.5,31.6 136.8,31.6 136.8,32.3 133.3,32.3 133.3,33.8 136.6,33.8 136.6,34.5 133.3,34.5 
			133.3,36.2 136.8,36.2 136.8,36.8 132.5,36.8 		"/>
		<path fill="#FFFFFF" d="M138.9,35.1c0,0.9,0.899,1.2,1.699,1.2c0.801,0,1.4-0.3,1.4-0.899c0-0.5-0.4-0.7-1-0.801l-1.2-0.199
			c-0.6-0.101-1.6-0.4-1.6-1.4s0.8-1.6,2.1-1.6c1.101,0,2.2,0.399,2.2,1.6h-0.8c-0.101-0.4-0.3-1-1.601-1
			c-0.6,0-1.199,0.2-1.199,0.9c0,0.3,0.199,0.6,0.899,0.699l1.3,0.2c0.4,0.101,1.601,0.3,1.601,1.3c0,1.301-1.2,1.7-2.3,1.7
			c-1.2,0-2.4-0.399-2.4-1.899h0.9V35.1z"/>
		<path fill="#FFFFFF" d="M69.1,44h-2.6l-0.7,1.5H65l2.4-5.2h0.9l2.4,5.2h-0.9L69.1,44z M67.8,41l-1,2.3h2L67.8,41z"/>
		<path fill="#FFFFFF" d="M72,40.3h0.8v3.4c0,0.899,0.6,1.3,1.6,1.3s1.6-0.4,1.6-1.3v-3.4h0.8v3.3c0,1.4-0.8,2.101-2.4,2.101
			S72,45,72,43.6V40.3z"/>
		<path fill="#FFFFFF" d="M78.8,40.3h2.7c1.6,0,2.3,1,2.3,2.5s-0.6,2.7-2.2,2.7h-2.7v-5.2H78.8z M81.4,44.9c1.3,0,1.5-1.101,1.5-2
			c0-0.9-0.3-1.9-1.6-1.9h-1.7v3.9H81.4z"/>
		<rect x="85.6" y="40.3" fill="#FFFFFF" width="0.8" height="5.2"/>
		<path fill="#FFFFFF" d="M91,40.2c2.1,0,2.9,1.399,2.9,2.8c0,1.3-0.801,2.8-2.9,2.8c-2.1,0-2.9-1.399-2.9-2.8S88.9,40.2,91,40.2
			 M91,40.9c-1.2,0-2.1,0.699-2.1,2.1s0.9,2.1,2.1,2.1s2.1-0.699,2.1-2.1C93.2,41.6,92.2,40.9,91,40.9"/>
		<polygon fill="#FFFFFF" points="99.6,40.3 100.5,40.3 98.2,45.6 97.4,45.6 95,40.3 95.9,40.3 97.8,44.8 		"/>
		<rect x="101.9" y="40.3" fill="#FFFFFF" width="0.8" height="5.2"/>
		<path fill="#FFFFFF" d="M105.1,43.8c0,0.9,0.9,1.2,1.7,1.2s1.4-0.3,1.4-0.9c0-0.5-0.4-0.699-1-0.8l-1.2-0.2
			c-0.6-0.1-1.6-0.399-1.6-1.399s0.8-1.601,2.1-1.601c1.1,0,2.2,0.4,2.2,1.601H108c-0.1-0.4-0.3-1-1.6-1c-0.601,0-1.2,0.2-1.2,0.899
			c0,0.301,0.2,0.601,0.899,0.7l1.301,0.2c0.399,0.1,1.6,0.3,1.6,1.3c0,1.3-1.2,1.7-2.3,1.7c-1.2,0-2.4-0.4-2.4-1.9h0.8V43.8z"/>
		<path fill="#FFFFFF" d="M110.5,40.3h0.8v3.4c0,0.899,0.601,1.3,1.601,1.3s1.6-0.4,1.6-1.3v-3.4h0.8v3.3
			c0,1.4-0.8,2.101-2.399,2.101c-1.601,0-2.4-0.7-2.4-2.101V40.3z"/>
		<path fill="#FFFFFF" d="M120.7,44H118.1l-0.699,1.5H116.6l2.4-5.2h0.9l2.399,5.2H121.4L120.7,44z M119.5,41l-1,2.3h2L119.5,41z"/>
		<polygon fill="#FFFFFF" points="123.7,40.3 124.5,40.3 124.5,44.9 127.7,44.9 127.7,45.6 123.7,45.6 		"/>
		<polygon fill="#FFFFFF" points="129.2,40.3 133.4,40.3 133.4,41 130,41 130,42.5 133.3,42.5 133.3,43.2 130,43.2 130,44.9 
			133.5,44.9 133.5,45.6 129.2,45.6 		"/>
		<path fill="#FFFFFF" d="M135.6,43.8c0,0.9,0.9,1.2,1.7,1.2s1.4-0.3,1.4-0.9c0-0.5-0.4-0.699-1-0.8l-1.2-0.2
			c-0.6-0.1-1.6-0.399-1.6-1.399s0.8-1.601,2.1-1.601c1.1,0,2.1,0.4,2.2,1.601h-0.8c-0.101-0.4-0.301-1-1.601-1
			c-0.6,0-1.2,0.2-1.2,0.899c0,0.301,0.2,0.601,0.9,0.7l1.3,0.2c0.4,0.1,1.601,0.3,1.601,1.3c0,1.3-1.2,1.7-2.301,1.7
			c-1.199,0-2.399-0.4-2.399-1.9h0.899V43.8z"/>
		<rect x="65.6" y="7.1" fill="#FFFFFF" width="2.8" height="10.5"/>
		<polygon fill="#FFFFFF" points="79.9,7.1 82.6,7.1 82.6,17.6 79.5,17.6 73.8,10.3 73.8,10.3 73.8,17.6 71,17.6 71,7.1 74.3,7.1 
			79.8,14.4 79.9,14.4 		"/>
		<path fill="#FFFFFF" d="M94,11.1c-0.3-1.5-1.5-2.3-3-2.3c-2.7,0-3.3,2.1-3.3,3.5c0,1.4,0.6,3.5,3.3,3.5c1.4,0,2.7-0.7,3-2.3h3.1
			C96.7,16.6,94.2,17.8,90.9,17.8c-3.8,0-6.2-1.6-6.2-5.5c0-3.9,2.4-5.5,6.2-5.5c2.5,0,5.699,0.6,6.199,4.3H94z"/>
		<path fill="#FFFFFF" d="M106.6,15.4h-4.8l-0.899,2.2H97.8L102.4,7.1h3.399l4.601,10.5H107.3L106.6,15.4z M104.2,9.4l-1.601,4.2
			h3.301L104.2,9.4z"/>
		<path fill="#FFFFFF" d="M119.4,15.4H114.6l-0.899,2.2H110.6L115.2,7.1h3.399l4.601,10.5H120.1L119.4,15.4z M117,9.4l-1.6,4.2h3.3
			L117,9.4z"/>
		<path fill="#FFFFFF" d="M46,41.5l0.9-3.4l3.3,0.9l1.5-5.5l-3.3-0.9l0.9-3.399l0,0l0,0l3.3,0.899l1.5-5.5L50.8,23.7v-0.1l0,0
			l0.9-3.3l3.3,0.9l1.3-4.8l-7.8-2.1l0.7-2.6L20.8,3.9h-0.1l-0.5,1.7l-3.4-0.9L17.3,3h-0.1l0,0l-2.3-0.6L5.8,35.7l5.8,1.6l-0.9,3.4
			L8,40l-1.6,5.8h5.1l9.1-33.5l28.2,7.9l-7,25.6h6.7l0.9-3.2L46,41.5z M12.8,32.5l-3.4-0.9l0.9-3.399l3.4,0.899L12.8,32.5z
			 M15.3,23.6l-3.4-0.9l0.9-3.4l3.4,0.9L15.3,23.6z M17.7,14.7l-3.4-0.9l0.9-3.4l3.4,0.9L17.7,14.7z"/>
	</g>
</g>
</svg>
