<?xml version="1.0" encoding="utf-8"?>
<!-- Generator: Adobe Illustrator 19.1.0, SVG Export Plug-In . SVG Version: 6.00 Build 0)  -->
<svg version="1.1" id="Capa_1" xmlns="http://www.w3.org/2000/svg" xmlns:xlink="http://www.w3.org/1999/xlink" x="0px" y="0px"
	 viewBox="-70 203.7 817.3 154.3" style="enable-background:new -70 203.7 817.3 154.3;" xml:space="preserve">
<style type="text/css">
	.st0{fill:#00DDE5;}
	.st1{fill:#FFFFFF;}
	.st2{fill:#1C1C1C;}
</style>
<g>
	<rect x="479.2" y="214.9" class="st0" width="202.2" height="131.9"/>
	<path class="st1" d="M85.7,206.9h49.4v147.9H85.7L85.7,206.9L85.7,206.9z"/>
	<path class="st1" d="M152.5,206.9h46.3l52.6,65.3v-65.3h49v147.9h-44l-54.9-68.3v68.3h-49V206.9z"/>
	<path class="st1" d="M404.3,314.2h-38.1v-16h32.9c-1.2-5.6-1.8-11.4-1.8-17.3c0-6.3,0.7-12.5,2.1-18.4h-33.1v-15h38.1
		c7.9-17.7,21.8-32.1,39.1-40.6H317.6v147.9h125.8C426.1,346.3,412.2,331.9,404.3,314.2z"/>
	<circle id="XMLID_294_" class="st0" cx="479.2" cy="280.8" r="65.9"/>
	<circle id="XMLID_293_" class="st0" cx="681.4" cy="280.8" r="65.9"/>
	<circle id="XMLID_292_" class="st2" cx="479.2" cy="280.8" r="53.8"/>
	<g>
		<g>
			<path class="st1" d="M468.6,291.7h-10.3l-1.5,5.7H447l11-33.3h11.1l11.2,33.3H470L468.6,291.7z M462.6,275l-2.4,9.3h6.5l-2.4-9.3
				l-0.8-3.5h-0.1L462.6,275z"/>
			<path class="st1" d="M504.3,284l7.2,13.4h-10.8l-4.9-11.6h-3.4v11.6h-9.3v-33.3h12.7c8.9,0,13.4,3.3,13.4,10.8
				C509.3,279.4,507.5,282.7,504.3,284z M496,271.5h-3.5v7.6h3.4c2.7,0,3.8-0.7,3.8-3.9C499.7,272.3,498.7,271.5,496,271.5z"/>
		</g>
	</g>
	<path class="st1" d="M37.1,296.3c-5.6,10.9-16.9,18.3-30,18.3c-18.6,0-33.7-15.1-33.7-33.7s15.1-33.7,33.7-33.7
		c12.7,0,23.7,7,29.4,17.3l37.5-22c-13.3-23.2-38.2-38.8-66.9-38.8c-42.6,0-77.1,34.5-77.1,77.1s34.5,77.1,77.1,77.1
		c29.3,0,54.7-16.3,67.8-40.3L37.1,296.3z"/>
	<g>
		<path class="st2" d="M557.6,264.5H571c2,0,3.7,0.3,5.3,0.8s2.9,1.3,3.9,2.3c1.1,1,1.9,2.2,2.5,3.6c0.6,1.4,0.9,2.9,0.9,4.6v0.1
			c0,1.9-0.3,3.6-1,5s-1.6,2.6-2.8,3.6s-2.6,1.7-4.2,2.2c-1.6,0.5-3.3,0.7-5.2,0.7h-5.5v9.9h-7.2v-32.8H557.6z M570.6,281.1
			c1.8,0,3.2-0.5,4.2-1.4c1-1,1.5-2.1,1.5-3.5v-0.1c0-1.6-0.5-2.9-1.6-3.7c-1-0.8-2.5-1.3-4.3-1.3h-5.6v10H570.6z"/>
		<path class="st2" d="M589.4,264.5h7.2v26.3H613v6.6h-23.6L589.4,264.5L589.4,264.5z"/>
		<path class="st2" d="M630.3,264.3h6.7l14,33.1h-7.6l-3-7.4h-13.9l-3,7.4h-7.4L630.3,264.3z M637.9,283.6l-4.4-10.7l-4.4,10.7
			H637.9z"/>
		<path class="st2" d="M665.8,284.4l-12.6-19.9h8.5l7.8,13.2l8-13.2h8.2l-12.6,19.8v13.1h-7.2v-13H665.8z"/>
	</g>
</g>
</svg>
