<?xml version="1.0" encoding="utf-8"?>
<!-- Generator: Adobe Illustrator 19.1.0, SVG Export Plug-In . SVG Version: 6.00 Build 0)  -->
<svg version="1.1" id="Capa_1" xmlns="http://www.w3.org/2000/svg" xmlns:xlink="http://www.w3.org/1999/xlink" x="0px" y="0px"
	 viewBox="-63 196.4 832.9 168.6" style="enable-background:new -63 196.4 832.9 168.6;" xml:space="preserve">
<style type="text/css">
	.st0{fill:#1C1C1C;}
	.st1{fill:#FFFFFF;}
	.st2{fill:#00F1FF;}
	.st3{fill:#00DCE4;}
</style>
<g>
	<rect x="537.2" y="208.6" class="st0" width="160.9" height="144.1"/>
	<path class="st1" d="M107.2,199.9h54v161.6h-54V199.9z"/>
	<path class="st1" d="M180.1,199.9h50.6l57.5,71.4v-71.4h53.6v161.6h-48l-60-74.6v74.6h-53.6V199.9H180.1z"/>
	<path class="st1" d="M455.4,317.2h-41.6v-17.6h35.9c-1.3-6.1-2-12.4-2-18.9c0-6.9,0.8-13.6,2.3-20.1h-36.2v-16.4h41.6
		c8.6-19.3,23.8-35.1,42.7-44.3H360.6v161.6h137.5C479.2,352.2,464,336.5,455.4,317.2z"/>
	<circle id="XMLID_202_" class="st2" cx="537.2" cy="280.7" r="72.1"/>
	<circle id="XMLID_187_" class="st0" cx="697.9" cy="280.7" r="72.1"/>
	<circle id="XMLID_114_" class="st0" cx="537.2" cy="280.7" r="58.8"/>
	<g>
		<g>
			<path class="st1" d="M525.6,292.5h-11.2l-1.6,6.3H502l12.1-36.3h12.1l12.3,36.3h-11.3L525.6,292.5z M519,274.3l-2.6,10.2h7.1
				l-2.5-10.2l-0.9-3.9H520L519,274.3z"/>
			<path class="st1" d="M564.6,284.2l7.9,14.6h-11.8l-5.3-12.6h-3.7v12.6h-10.1v-36.3h13.9c9.7,0,14.7,3.6,14.7,11.8
				C570.1,279.1,568.1,282.8,564.6,284.2z M555.5,270.5h-3.8v8.3h3.7c3,0,4.1-0.7,4.1-4.3C559.6,271.4,558.5,270.5,555.5,270.5z"/>
		</g>
	</g>
	<path class="st1" d="M54,297.6c-6.1,11.9-18.5,20-32.8,20c-20.4,0-36.9-16.5-36.9-36.9s16.5-36.9,36.9-36.9
		c13.8,0,25.9,7.6,32.2,18.9l40.9-24c-14.4-25.2-41.7-42.3-73-42.3c-46.6,0-84.3,37.7-84.3,84.3c0,46.5,37.7,84.3,84.3,84.3
		c32,0,59.8-17.8,74.1-44.1L54,297.6z"/>
	<g>
		<path class="st3" d="M644.5,270.1h-10.9v-7.3h29.8v7.3h-10.9v28.6h-7.9L644.5,270.1L644.5,270.1z"/>
		<path class="st3" d="M666.9,262.9h8.7l9.4,25.3l9.4-25.3h8.5l-14.5,36.2h-7L666.9,262.9z"/>
	</g>
</g>
</svg>
